# xmcd CD database file
#
# Track frame offsets:
#	150
#	20028
#	43286
#	68697
#	86416
#	111082
#	134792
#	162675
#	198988
#	222840
#	253035
#	287233
#
# Disc length: 4305 seconds
#
# Revision: 0
# Processed by: cddbd v1.5.2PL0 Copyright (c) Steve Scherf et al.
# Submitted via: CDex 1.70beta2
#
DISCID=bd10cf0c
DTITLE=Charlie Musselwhite - Rough Dried - Live at the Triple Door 
DYEAR=2008
DGENRE=Blues
TTITLE0=River Hip Mama
TTITLE1=If I Should Have Bad Luck
TTITLE2=Strange Land
TTITLE3=Rough Dried Woman
TTITLE4=Blues Overtook Me
TTITLE5=Feel It In Your Heart
TTITLE6=Wild Wild Woman
TTITLE7=She May Be Your Woman
TTITLE8=09-Long Lean Lanky Mama
TTITLE9=Movin' and Groovin'
TTITLE10=Drop Down Baby
TTITLE11=Cristo Redentor
EXTD=YEAR: 2008
EXTT0=
EXTT1=
EXTT2=
EXTT3=
EXTT4=
EXTT5=
EXTT6=
EXTT7=
EXTT8=
EXTT9=
EXTT10=
EXTT11=
PLAYORDER=
